<svg width="65" height="65" viewBox="0 0 65 65" fill="none" xmlns="http://www.w3.org/2000/svg">
<path d="M32.5 6.09375C27.2773 6.09375 22.172 7.64245 17.8295 10.544C13.487 13.4456 10.1024 17.5697 8.10382 22.3948C6.10519 27.2199 5.58226 32.5293 6.60115 37.6516C7.62004 42.7739 10.135 47.4791 13.828 51.172C17.521 54.865 22.2261 57.38 27.3484 58.3989C32.4707 59.4178 37.7801 58.8948 42.6052 56.8962C47.4304 54.8976 51.5545 51.513 54.456 47.1705C57.3576 42.828 58.9063 37.7227 58.9063 32.5C58.8982 25.4991 56.1135 18.7873 51.1631 13.8369C46.2128 8.88648 39.5009 6.10181 32.5 6.09375ZM54.8438 32.5C54.8455 34.5606 54.561 36.6115 53.9983 38.5938H44.2203C44.8433 34.5551 44.8433 30.4449 44.2203 26.4062H53.9983C54.561 28.3885 54.8455 30.4394 54.8438 32.5ZM25.8984 42.6562H39.1016C37.8008 46.9183 35.5428 50.8265 32.5 54.082C29.4584 50.8256 27.2005 46.9177 25.8984 42.6562ZM24.9082 38.5938C24.2108 34.5612 24.2108 30.4388 24.9082 26.4062H40.1121C40.8095 30.4388 40.8095 34.5612 40.1121 38.5938H24.9082ZM10.1563 32.5C10.1545 30.4394 10.4391 28.3885 11.0018 26.4062H20.7797C20.1568 30.4449 20.1568 34.5551 20.7797 38.5938H11.0018C10.4391 36.6115 10.1545 34.5606 10.1563 32.5ZM39.1016 22.3438H25.8984C27.1992 18.0817 29.4572 14.1735 32.5 10.918C35.5416 14.1744 37.7995 18.0823 39.1016 22.3438ZM52.3885 22.3438H43.3443C42.2044 18.1617 40.2833 14.2332 37.6822 10.7656C40.8249 11.5206 43.7671 12.9461 46.3072 14.9446C48.8473 16.943 50.9253 19.4671 52.3986 22.3438H52.3885ZM27.3178 10.7656C24.7168 14.2332 22.7956 18.1617 21.6557 22.3438H12.6014C14.0747 19.4671 16.1527 16.943 18.6928 14.9446C21.2329 12.9461 24.1752 11.5206 27.3178 10.7656ZM12.6014 42.6562H21.6557C22.7956 46.8383 24.7168 50.7668 27.3178 54.2344C24.1752 53.4794 21.2329 52.0539 18.6928 50.0554C16.1527 48.057 14.0747 45.5329 12.6014 42.6562ZM37.6822 54.2344C40.2833 50.7668 42.2044 46.8383 43.3443 42.6562H52.3986C50.9253 45.5329 48.8473 48.057 46.3072 50.0554C43.7671 52.0539 40.8249 53.4794 37.6822 54.2344Z" fill="#FCFFF9"/>
</svg>
