<svg width="65" height="45" viewBox="0 0 65 45" fill="none" xmlns="http://www.w3.org/2000/svg">
<path d="M64.406 10.9379L54.2497 0.781652C54.0611 0.592793 53.8371 0.442971 53.5905 0.34075C53.3439 0.238528 53.0796 0.185913 52.8126 0.185913C52.5457 0.185913 52.2814 0.238528 52.0348 0.34075C51.7882 0.442971 51.5642 0.592793 51.3755 0.781652L42.6564 9.50333L33.9372 0.781652C33.7486 0.592793 33.5246 0.442971 33.278 0.34075C33.0314 0.238528 32.7671 0.185913 32.5001 0.185913C32.2332 0.185913 31.9689 0.238528 31.7223 0.34075C31.4757 0.442971 31.2517 0.592793 31.063 0.781652L22.3439 9.50333L13.6247 0.781652C13.4361 0.592793 13.2121 0.442971 12.9655 0.34075C12.7189 0.238528 12.4546 0.185913 12.1876 0.185913C11.9207 0.185913 11.6564 0.238528 11.4098 0.34075C11.1632 0.442971 10.9392 0.592793 10.7505 0.781652L0.594274 10.9379C0.405415 11.1265 0.255592 11.3506 0.153371 11.5972C0.0511499 11.8438 -0.00146484 12.1081 -0.00146484 12.375C-0.00146484 12.6419 0.0511499 12.9063 0.153371 13.1529C0.255592 13.3994 0.405415 13.6235 0.594274 13.8121L10.7505 23.9684C10.9392 24.1572 11.1632 24.3071 11.4098 24.4093C11.6564 24.5115 11.9207 24.5641 12.1876 24.5641C12.4546 24.5641 12.7189 24.5115 12.9655 24.4093C13.2121 24.3071 13.4361 24.1572 13.6247 23.9684L22.3439 15.2467L29.6285 22.5313L20.9068 31.2504C20.7179 31.439 20.5681 31.6631 20.4659 31.9097C20.3637 32.1563 20.311 32.4206 20.311 32.6875C20.311 32.9544 20.3637 33.2188 20.4659 33.4654C20.5681 33.712 20.7179 33.936 20.9068 34.1246L31.063 44.2809C31.2517 44.4697 31.4757 44.6196 31.7223 44.7218C31.9689 44.824 32.2332 44.8766 32.5001 44.8766C32.7671 44.8766 33.0314 44.824 33.278 44.7218C33.5246 44.6196 33.7486 44.4697 33.9372 44.2809L44.0935 34.1246C44.2823 33.936 44.4322 33.712 44.5344 33.4654C44.6366 33.2188 44.6892 32.9544 44.6892 32.6875C44.6892 32.4206 44.6366 32.1563 44.5344 31.9097C44.4322 31.6631 44.2823 31.439 44.0935 31.2504L35.3718 22.5313L42.6564 15.2467L51.3755 23.9684C51.5642 24.1572 51.7882 24.3071 52.0348 24.4093C52.2814 24.5115 52.5457 24.5641 52.8126 24.5641C53.0796 24.5641 53.3439 24.5115 53.5905 24.4093C53.8371 24.3071 54.0611 24.1572 54.2497 23.9684L64.406 13.8121C64.5948 13.6235 64.7447 13.3994 64.8469 13.1529C64.9491 12.9063 65.0017 12.6419 65.0017 12.375C65.0017 12.1081 64.9491 11.8438 64.8469 11.5972C64.7447 11.3506 64.5948 11.1265 64.406 10.9379ZM12.1876 19.6596L4.90306 12.375L12.1876 5.09044L19.4722 12.375L12.1876 19.6596ZM32.5001 39.9721L25.2156 32.6875L32.5001 25.4029L39.7847 32.6875L32.5001 39.9721ZM32.5001 19.6596L25.2156 12.375L32.5001 5.09044L39.7847 12.375L32.5001 19.6596ZM52.8126 19.6596L45.5281 12.375L52.8126 5.09044L60.0972 12.375L52.8126 19.6596Z" fill="#FCFFF9" fill-opacity="0.95"/>
</svg>
