<svg width="26" height="32" viewBox="0 0 26 32" fill="none" xmlns="http://www.w3.org/2000/svg">
<path d="M13.8642 1.30787L25.099 12.5427C25.3282 12.7719 25.4569 13.0827 25.4569 13.4069C25.4569 13.731 25.3282 14.0419 25.099 14.2711C24.8698 14.5003 24.5589 14.6291 24.2347 14.6291C23.9106 14.6291 23.5997 14.5003 23.3705 14.2711L14.2217 5.12229L14.2228 29.827C14.2228 30.1513 14.094 30.4623 13.8646 30.6917C13.6353 30.921 13.3243 31.0498 13 31.0498C12.6756 31.0498 12.3646 30.921 12.1353 30.6917C11.9059 30.4623 11.7771 30.1513 11.7771 29.827L11.7782 5.12229L2.62937 14.2711C2.40017 14.5003 2.0893 14.6291 1.76516 14.6291C1.44102 14.6291 1.13015 14.5003 0.900943 14.2711C0.671739 14.0419 0.542974 13.731 0.542974 13.4069C0.542974 13.0827 0.671739 12.7719 0.900943 12.5427L12.1357 1.30787C12.3649 1.07866 12.6758 0.949896 13 0.949896C13.3241 0.949896 13.635 1.07866 13.8642 1.30787Z" fill="white"/>
</svg>
